<svg xmlns="http://www.w3.org/2000/svg" width="91" height="71" viewBox="0 0 91 71" fill="none"><path d="M9 20C9 17.7909 10.7909 16 13 16H78C80.2091 16 82 17.7909 82 20V60H9V20Z" fill="white" stroke="#041A57" stroke-width="2"></path><path d="M14 23C14 21.3431 15.3431 20 17 20H75C76.6569 20 78 21.3431 78 23V57H14V23Z" fill="#B4DDE6"></path><path d="M90 66C90 68.2091 88.2091 70 86 70L5 70C2.79086 70 1 68.2091 1 66L1 60L90 60L90 66Z" fill="white" stroke="#041A57" stroke-width="2"></path><path d="M89 66C89 67.6569 87.6569 69 86 69L5 69C3.34315 69 2 67.6568 2 66L2 65L89 65L89 66Z" fill="#B4DDE6"></path><rect x="15" y="25.001" width="10" height="31" fill="white" stroke="#041A57" stroke-width="2"></rect><rect x="18" y="29.001" width="4" height="8" rx="2" fill="#B4DDE6"></rect><rect x="22" y="50.001" width="2" height="4" rx="1" transform="rotate(90 22 50.001)" fill="#B4DDE6"></rect><rect x="45.2974" y="4.96917" width="10" height="54.621" transform="rotate(-21.5439 45.2974 4.96917)" fill="#FF9E16" stroke="#041A57" stroke-width="2"></rect><rect x="50.8706" y="10.9189" width="4" height="9.16664" rx="2" transform="rotate(-21.5439 50.8706 10.9189)" fill="white"></rect><rect x="68.896" y="40.2334" width="3.53881" height="8" transform="rotate(68.4561 68.896 40.2334)" fill="white"></rect><rect x="70.6289" y="44.625" width="2.35921" height="8" transform="rotate(68.4561 70.6289 44.625)" fill="white"></rect><rect x="33" y="25.001" width="10" height="31" fill="white" stroke="#041A57" stroke-width="2"></rect><rect x="36" y="36.001" width="2" height="16" rx="1" fill="#B4DDE6"></rect><rect x="40" y="29.001" width="2" height="4" rx="1" transform="rotate(90 40 29.001)" fill="#B4DDE6"></rect><rect x="40" y="32.001" width="2" height="4" rx="1" transform="rotate(90 40 32.001)" fill="#B4DDE6"></rect><rect x="43" y="31.001" width="10" height="25" fill="white" stroke="#041A57" stroke-width="2"></rect><rect x="50" y="47.001" width="2" height="4" rx="1" transform="rotate(90 50 47.001)" fill="#B4DDE6"></rect><rect x="50" y="50.001" width="2" height="4" rx="1" transform="rotate(90 50 50.001)" fill="#B4DDE6"></rect><rect x="25" y="37.001" width="8" height="19" fill="white" stroke="#041A57" stroke-width="2"></rect><rect x="26" y="38.001" width="3" height="17" fill="#B4DDE6"></rect></svg>