<svg xmlns="http://www.w3.org/2000/svg" viewBox="0 0 91 69"><defs><style>.cls-1{fill:#fff;stroke:#041a57;}.cls-1,.cls-4,.cls-5{stroke-width:2px;}.cls-2{fill:#b4dde6;}.cls-3,.cls-6{fill:#ff9e16;}.cls-4,.cls-5{fill:none;stroke-linecap:square;}.cls-4,.cls-6{stroke:#ff9e16;}.cls-5{stroke:#b4dde6;}</style></defs><g id="Layer_2" data-name="Layer 2"><g id="Layer_1-2" data-name="Layer 1"><path class="cls-1" d="M13,14H78a4,4,0,0,1,4,4V58H9V18A4,4,0,0,1,13,14Z"></path><path class="cls-2" d="M14,21a3,3,0,0,1,3-3H75a3,3,0,0,1,3,3V55H14Z"></path><path class="cls-1" d="M86,68H5a4,4,0,0,1-4-4V58H90v6A4,4,0,0,1,86,68Z"></path><path class="cls-2" d="M89,64a3,3,0,0,1-3,3H5a3,3,0,0,1-3-3V63H89Z"></path><rect class="cls-1" x="18" y="1" width="55" height="45" rx="4"></rect><path class="cls-3" d="M41,19.62a1,1,0,0,1,1.45-.9l8.76,4.39a1,1,0,0,1,0,1.78l-8.76,4.39a1,1,0,0,1-1.45-.9Z"></path><path class="cls-4" d="M25,38.5H42"></path><path class="cls-5" d="M48,38.5H66"></path><circle class="cls-6" cx="42.5" cy="38.5" r="2"></circle></g></g></svg>